# Blender v2.92.0 OBJ File: ''
# www.blender.org
mtllib one_log.mtl
o Logs
v 0.556041 -3.446813 -2.688500
v 0.326541 -4.624612 0.222102
v -24.641760 -4.773710 -0.822202
v -24.443960 -3.826909 -3.523599
v 0.535041 -0.583711 -3.865800
v -24.464960 -1.083112 -4.882199
v 0.362141 2.210085 -2.669499
v -24.637859 1.829989 -3.555997
v 0.357841 3.952090 0.173000
v -24.594360 2.916590 -0.689099
v 0.007141 2.793391 2.918605
v -25.058960 1.812990 2.100902
v -0.193459 -0.637613 4.134204
v -25.193460 -0.994913 3.117801
v -0.029159 -3.440214 2.968303
v -25.085760 -3.534112 2.124003
v -50.193459 -1.142515 3.326198
v -50.058960 1.708590 1.868602
v -49.594360 3.007788 -1.009701
v -49.673458 -4.992212 -0.411099
v -49.637859 1.897288 -3.788300
v -49.464958 -0.870611 -4.673799
v -49.443958 -3.759511 -3.376698
v -50.029160 -3.948312 2.280200
v 50.556042 -3.308012 -2.377500
v 50.535042 -0.422910 -3.508298
v 50.362141 2.348788 -2.655698
v 49.970840 -3.435713 3.279300
v 50.405640 3.541087 -0.139599
v 49.941040 2.221087 3.001201
v 49.806541 -0.748712 4.491702
v 50.326542 -4.458913 0.574199
v 25.279041 -4.800710 0.228503
v 25.556040 -3.289213 -2.341599
v 25.535040 -0.529512 -3.099099
v 25.362141 2.367587 -2.155999
v 25.405640 3.726885 0.949001
v 24.941040 2.452288 3.500804
v 24.806540 -0.248113 4.900905
v 25.067041 -3.732111 3.263301
vt 0.069400 0.500000
vt 0.000000 0.500000
vt 0.000000 0.250000
vt 0.069400 0.250000
vt 0.128300 0.500000
vt 0.128300 0.250000
vt 0.187100 0.500000
vt 0.187100 0.250000
vt 0.256500 0.500000
vt 0.256500 0.250000
vt 0.318400 0.500000
vt 0.325900 0.250000
vt 0.384800 0.500000
vt 0.384800 0.250000
vt 0.443700 0.500000
vt 0.439000 0.250000
vt 0.513100 0.500000
vt 0.513100 0.250000
vt 0.662100 0.317100
vt 0.663000 0.219700
vt 0.732600 0.151500
vt 0.827600 0.387600
vt 0.829900 0.152500
vt 0.898100 0.222000
vt 0.897200 0.319400
vt 0.730300 0.386600
vt 0.732900 0.922400
vt 0.664700 0.852900
vt 0.665700 0.755500
vt 0.899800 0.855200
vt 0.735200 0.687300
vt 0.832600 0.688300
vt 0.900800 0.757800
vt 0.830300 0.923400
vt 0.069400 1.000000
vt 0.000000 1.000000
vt 0.000000 0.750000
vt 0.069400 0.750000
vt 0.000000 0.000000
vt 0.069400 0.000000
vt 0.128300 1.000000
vt 0.128300 0.750000
vt 0.128300 0.000000
vt 0.187100 1.000000
vt 0.187100 0.750000
vt 0.187100 0.000000
vt 0.256500 1.000000
vt 0.256500 0.750000
vt 0.256500 0.000000
vt 0.325900 1.000000
vt 0.325900 0.750000
vt 0.325900 0.000000
vt 0.384800 1.000000
vt 0.384800 0.750000
vt 0.384800 0.000000
vt 0.443700 1.000000
vt 0.450600 0.750000
vt 0.443700 0.000000
vt 0.513100 1.000000
vt 0.513100 0.750000
vt 0.513100 0.000000
vn 0.0263 -0.7089 -0.7048
vn 0.0039 -0.9999 0.0136
vn 0.0086 -0.9997 0.0231
vn 0.0180 -0.7462 -0.6654
vn 0.0306 0.0076 -0.9995
vn 0.0169 -0.0193 -0.9997
vn 0.0192 0.6581 -0.7527
vn 0.0014 0.7231 -0.6907
vn -0.0051 0.9975 -0.0707
vn -0.0201 0.9998 0.0028
vn -0.0347 0.6927 0.7204
vn -0.0275 0.6965 0.7170
vn -0.0339 -0.0276 0.9990
vn -0.0189 -0.0113 0.9998
vn -0.0173 -0.7017 0.7122
vn -0.0030 -0.6994 0.7147
vn -0.9899 -0.0087 -0.1414
vn -0.9828 -0.0451 -0.1790
vn -0.9969 -0.0187 -0.0758
vn -0.9949 -0.0082 -0.1004
vn -0.9960 -0.0770 0.0464
vn -0.9992 -0.0181 -0.0348
vn -0.9938 -0.0513 -0.0982
vn -0.9919 -0.0108 -0.1269
vn 0.9940 0.0436 0.1006
vn 0.9962 0.0380 0.0785
vn 0.9964 -0.0157 0.0837
vn 0.9950 0.0287 0.0960
vn 0.9810 -0.1812 0.0689
vn 0.9966 -0.0201 0.0801
vn 0.9938 0.0107 0.1110
vn 0.9921 0.0694 0.1042
vn 0.0078 -0.6970 -0.7170
vn 0.0154 -0.9996 -0.0256
vn -0.0031 -0.9956 -0.0937
vn -0.0012 -0.6122 -0.7907
vn 0.0060 -0.9998 0.0191
vn -0.0082 -0.7237 -0.6901
vn -0.0101 -0.0406 -0.9991
vn 0.0026 0.0207 -0.9998
vn -0.0011 -0.0415 -0.9991
vn -0.0137 0.6473 -0.7621
vn 0.0006 0.6758 -0.7371
vn 0.0097 0.6865 -0.7270
vn 0.0074 0.9988 -0.0492
vn 0.0023 0.9995 0.0316
vn 0.0003 0.9994 0.0334
vn 0.0242 0.7420 0.6700
vn 0.0052 0.7104 0.7038
vn -0.0018 0.7064 0.7078
vn 0.0158 0.0133 0.9998
vn -0.0030 0.0211 0.9998
vn 0.0089 0.0577 0.9983
vn 0.0095 -0.7428 0.6695
vn -0.0061 -0.7418 0.6706
vn 0.0142 -0.6834 0.7299
usemtl Material__30
s 1
f 1/1/1 2/2/2 3/3/3 4/4/4
f 5/5/5 1/1/1 4/4/4 6/6/6
f 7/7/7 5/5/5 6/6/6 8/8/8
f 9/9/9 7/7/7 8/8/8 10/10/10
f 11/11/11 9/9/9 10/10/10 12/12/12
f 13/13/13 11/11/11 12/12/12 14/14/14
f 15/15/15 13/13/13 14/14/14 16/16/16
f 2/17/2 15/15/15 16/16/16 3/18/3
f 17/19/17 18/20/18 19/21/19 20/22/20
f 19/21/19 21/23/21 22/24/22 20/22/20
f 22/24/22 23/25/23 20/22/20
f 24/26/24 17/19/17 20/22/20
f 25/27/25 26/28/26 27/29/27 28/30/28
f 27/29/27 29/31/29 30/32/30 28/30/28
f 30/32/30 31/33/31 28/30/28
f 32/34/32 25/27/25 28/30/28
f 25/35/33 32/36/34 33/37/35 34/38/36
f 34/38/36 33/37/35 2/2/2 1/1/1
f 20/39/37 23/40/38 4/4/4 3/3/3
f 26/41/39 25/35/33 34/38/36 35/42/40
f 35/42/40 34/38/36 1/1/1 5/5/5
f 23/40/38 22/43/41 6/6/6 4/4/4
f 27/44/42 26/41/39 35/42/40 36/45/43
f 36/45/43 35/42/40 5/5/5 7/7/7
f 22/43/41 21/46/44 8/8/8 6/6/6
f 29/47/45 27/44/42 36/45/43 37/48/46
f 37/48/46 36/45/43 7/7/7 9/9/9
f 21/46/44 19/49/47 10/10/10 8/8/8
f 30/50/48 29/47/45 37/48/46 38/51/49
f 38/51/49 37/48/46 9/9/9 11/11/11
f 19/49/47 18/52/50 12/12/12 10/10/10
f 31/53/51 30/50/48 38/51/49 39/54/52
f 39/54/52 38/51/49 11/11/11 13/13/13
f 18/52/50 17/55/53 14/14/14 12/12/12
f 28/56/54 31/53/51 39/54/52 40/57/55
f 40/57/55 39/54/52 13/13/13 15/15/15
f 17/55/53 24/58/56 16/16/16 14/14/14
f 32/59/34 28/56/54 40/57/55 33/60/35
f 33/60/35 40/57/55 15/15/15 2/17/2
f 24/58/56 20/61/37 3/18/3 16/16/16
